<svg xmlns="http://www.w3.org/2000/svg" viewBox="0 0 714 678.3"><defs><style>.cls-1,.cls-10,.cls-11,.cls-12,.cls-15,.cls-19,.cls-20,.cls-21,.cls-22,.cls-23,.cls-25,.cls-28,.cls-3,.cls-4,.cls-5,.cls-7,.cls-8,.cls-9{fill:none;stroke-miterlimit:10;}.cls-1,.cls-28,.cls-5,.cls-7,.cls-8{stroke:#21b787;}.cls-1,.cls-10,.cls-11,.cls-15,.cls-4,.cls-8{stroke-linecap:round;}.cls-1{stroke-width:6px;}.cls-2{fill:#21b787;}.cls-10,.cls-11,.cls-25,.cls-3,.cls-4,.cls-9{stroke:#c0e7f3;}.cls-3{stroke-width:3.21px;}.cls-12,.cls-4,.cls-8,.cls-9{stroke-width:3px;}.cls-5{stroke-width:3.05px;}.cls-6{fill:#c0e7f3;}.cls-7{stroke-width:2.29px;}.cls-10,.cls-22{stroke-width:4px;}.cls-11{stroke-width:3.32px;}.cls-12,.cls-15,.cls-19,.cls-20,.cls-21,.cls-22,.cls-23{stroke:#04172b;}.cls-13{fill:#04172b;}.cls-14{fill:#1e0e04;}.cls-15{stroke-width:7px;}.cls-16{fill:#3dc1db;}.cls-17{fill:#321709;}.cls-18{fill:#89551c;}.cls-19{stroke-width:6.64px;}.cls-20{stroke-width:9.96px;}.cls-21{stroke-width:5.98px;}.cls-23{stroke-width:0.89px;}.cls-24{fill:#b5703a;}.cls-26{fill:#793816;}.cls-27{fill:#070207;}</style></defs><title>22</title><g id="_7" data-name="7"><line class="cls-1" x1="596.75" y1="465.39" x2="596.75" y2="363.24"/><path class="cls-2" d="M595.48,365.73c154.34,0,44.78-263.55,9.74-340a10.55,10.55,0,0,0-19.24.11C552,102.43,445.91,365.73,595.48,365.73Z"/><line class="cls-3" x1="596.75" y1="345.22" x2="596.75" y2="130.89"/><polyline class="cls-4" points="561.12 195.24 596.75 228.58 647.61 168.77"/><polyline class="cls-4" points="564.44 283.3 596.7 304.42 628.32 275.31"/><line class="cls-4" x1="596.75" y1="345.22" x2="596.75" y2="98.23"/><polyline class="cls-4" points="569.52 122.12 596.38 156 613.02 139.06"/><line class="cls-5" x1="435.05" y1="438.57" x2="435.05" y2="331.61"/><path class="cls-6" d="M434.15,333.38c109.89,0,31.88-187.65,6.94-242.09a7.51,7.51,0,0,0-13.7.08C403.17,145.92,327.66,333.38,434.15,333.38Z"/><line class="cls-7" x1="435.05" y1="318.78" x2="435.05" y2="166.18"/><polyline class="cls-8" points="409.69 211.99 435.05 235.73 471.27 193.14"/><polyline class="cls-7" points="412.05 274.69 435.02 289.73 457.53 269"/><line class="cls-8" x1="435.05" y1="318.78" x2="435.05" y2="142.92"/><polyline class="cls-8" points="415.67 159.93 434.79 184.05 446.64 171.99"/><path class="cls-9" d="M168.5,437.71c-17.48,2.75-43.32,8.72-55.15-20.44-10.85-26.74,24.15-50,24.15-67.63S80.31,330.9,73,259.21C62,152.88,148.84,155.67,143.45,128.44c-4.89-24.72-56-73.88,25-83.91,100.47,7.05,23.75,86.54,23.75,115.19s78.46,2.79,76.54,95.33c-1.11,53.5-63.65,43.75-64,61.41-.55,30.46,42.29,27.49,28.23,68.82C225.19,408.38,186,435,168.5,437.71Z"/><line class="cls-10" x1="170.41" y1="105.69" x2="170.41" y2="512.25"/><line class="cls-4" x1="120.34" y1="204.62" x2="170.41" y2="223.99"/><line class="cls-4" x1="171.99" y1="277.85" x2="243.56" y2="262.36"/><path class="cls-11" d="M133.63,395.2c1.66.34,36.78,6.42,36.78,6.42"/><line class="cls-12" x1="78.37" y1="595.73" x2="651.34" y2="595.73"/><path class="cls-13" d="M374.55,570.76l35.59-10.23.76,4.37a4.49,4.49,0,0,1-3.53,5l-27.11,5.64a4.49,4.49,0,0,1-5.21-3.11Z"/><path class="cls-14" d="M457.75,362.38c3.23-5.31,6.48-10.73,9-15.6h0c3.52-1,8.08-1.93,9.51,0C478,349.13,465.4,357.55,457.75,362.38Z"/><path class="cls-15" d="M265,346.39s-1.83,4.15,9.13,8.39"/><path class="cls-16" d="M468.39,311.59l-.66-.1c-18.27-2.65-44.35,5.24-49.89,13.63h0l-.25.41c-3.84,6.65-4.92.89-7.33-5.3a28.19,28.19,0,0,0-2.63-5.33c-4.65-7-22.92-19.6-33.21-21.26-2.89-.46-10.3-3.79-10.78-8.18l-5.83,6-.81-.59-4.51-3.32-2.65,3.08-.74-.39-16.87-8.91.6-1.24,0,0,11.45-23.43c.78-11.3-1.22-22.24-1.09-36.82.27.45.54.91.81,1.4,1.14-5.35,10.52-19.91,20.09-19.48,5.93,4.73,21,11.24,27.38,17.6,12.33,12.25,16.79,36.76,29.75,46.72S463.74,292.66,468.39,311.59Z"/><path class="cls-2" d="M417.82,325.13c-1.45,7.88-4.33,21.54-8.22,31a82,82,0,0,0-3.54,12l-42.29,6.85a62.84,62.84,0,0,1,17.05,13.73c5.26,6.19,13,22.44,17.2,32-.06.58-.11,1.12-.15,1.62-.66,7.26.88,12.63,2,18.79l-6.2.82L393,442s-53.36-55.8-61.11-66-4.87-17.72,3.32-24.8,34.76-17.05,52.26-22.72c12.28-4,19.54-6.89,22.78-8.26,2.42,6.19,3.49,11.95,7.33,5.3Z"/><path class="cls-6" d="M399.5,474.17c-.13,2-.25,4.12-.39,6.28-1.94.92-4.41,2-7.29,3.28-7.27,3.12-16.44,5.55-18.6,3.22s-1.16-4-1.16-4C372.37,486.08,392.05,479,399.5,474.17Z"/><path class="cls-17" d="M431.77,450.86l-5,5.61c-.37-5.89-1-11.51-1.29-16.39A87.46,87.46,0,0,1,431.77,450.86Z"/><path class="cls-16" d="M400.75,455.52c-.29,3.65-.73,10.5-1.24,18.65-7.45,4.86-27.13,11.91-27.43,8.8-.33-3.49,1.33-3.32,6.31-6s6.31-13.12,11.46-18.93c3.63-4.09,4-11.9,3.83-16.15l6.2-.82A53.73,53.73,0,0,1,400.75,455.52Z"/><path class="cls-6" d="M427,464.75c0-2.78-.13-5.55-.3-8.28l5-5.61a14.31,14.31,0,0,1,1.25,3.55C433.47,457.49,429.54,462.15,427,464.75Z"/><path class="cls-18" d="M357,290.91c-3.43,4.86-14.45,20.47-17.24,24.56-3.32,4.88-11.29,17.05-16.61,21.15s-17.93,16-20.15,19.6-5.76,8.52-7.09,9.19a52.2,52.2,0,0,1-7-2.77,27.65,27.65,0,0,1,2.18-2.38c1-.78,3.1-3.87,4.37-5.65S312,335.34,315.77,332s11.24-11.9,16-17.66c3.91-4.74,13.89-19.12,17.31-24.09l1.18-1.71,2.21-1Z"/><polyline class="cls-19" points="283.39 364.07 304.98 372.37 248.85 510.21"/><line class="cls-19" x1="297.07" y1="391.8" x2="417.9" y2="424.85"/><line class="cls-20" x1="295.58" y1="395.46" x2="386.68" y2="524.82"/><polyline class="cls-21" points="419.9 424.85 491.3 513.2 393.66 524.82"/><circle class="cls-13" cx="246.19" cy="510.21" r="15.28"/><circle class="cls-13" cx="487.65" cy="511.87" r="15.28"/><circle class="cls-13" cx="390.67" cy="524.82" r="27.23"/><line class="cls-22" x1="480.68" y1="502.9" x2="386.68" y2="505.56"/><path class="cls-22" d="M379.73,549.76l103.6-3.3a7.2,7.2,0,0,0,6-10.77l-8.68-15.18"/><path class="cls-13" d="M246.19,424.85a85,85,0,1,0,85,85A85,85,0,0,0,246.19,424.85Zm0,159.42a74.4,74.4,0,1,1,74.4-74.4A74.39,74.39,0,0,1,246.19,584.27Z"/><path class="cls-13" d="M490.31,424.85a85,85,0,1,0,85,85A85,85,0,0,0,490.31,424.85Zm0,159.42a74.4,74.4,0,1,1,74.4-74.4A74.39,74.39,0,0,1,490.31,584.27Z"/><line class="cls-23" x1="209.66" y1="441.46" x2="246.19" y2="500.24"/><line class="cls-23" x1="225.44" y1="435.98" x2="248.85" y2="500.91"/><line class="cls-23" x1="243.54" y1="430.83" x2="242.04" y2="505.56"/><line class="cls-23" x1="257.65" y1="431.99" x2="243.54" y2="500.91"/><line class="cls-23" x1="269.28" y1="435.98" x2="251.29" y2="504.23"/><polyline class="cls-23" points="299.67 451.42 250.75 505.56 313.78 471.85"/><line class="cls-23" x1="309.46" y1="461.55" x2="251.29" y2="508.88"/><line class="cls-23" x1="324.58" y1="488.62" x2="255" y2="513.36"/><path class="cls-23" d="M325.9,507.22c-.5,0-82.7,1.83-79.71,3"/><path class="cls-23" d="M324.58,527.48c-.83-.66-78.46-16.27-78.46-16.27"/><path class="cls-23" d="M317.1,546.08s-73.9-29.89-73.57-29.89"/><path class="cls-23" d="M302.32,562.18c-.17-.83-49.15-48.82-49.15-48.82"/><line class="cls-23" x1="291.53" y1="572.65" x2="253.17" y2="516.19"/><line class="cls-23" x1="279.07" y1="581.95" x2="250.59" y2="518.18"/><line class="cls-23" x1="247.02" y1="516.19" x2="264.13" y2="585.77"/><line class="cls-23" x1="246.11" y1="516.19" x2="237.14" y2="584.6"/><line class="cls-23" x1="241.63" y1="508.88" x2="220.62" y2="584.6"/><path class="cls-23" d="M247,512.53c-.83,0-37.36,62.16-37.36,62.16"/><line class="cls-23" x1="242.04" y1="511.2" x2="187.91" y2="560.52"/><line class="cls-23" x1="240.22" y1="510.21" x2="172.96" y2="537.77"/><path class="cls-23" d="M240.58,512.53c-.38.35-71.78.83-71.78.83"/><path class="cls-23" d="M170.8,494.93s70.75,13.54,69.41,12.29c-2.49-2.32-65.26-29.56-65.26-29.56"/><path class="cls-23" d="M245,507.3c.33-1.91-60.61-47.16-60.61-47.16"/><line class="cls-23" x1="242.14" y1="500.91" x2="201.19" y2="444.45"/><line class="cls-23" x1="455.13" y1="441.46" x2="491.66" y2="500.24"/><line class="cls-23" x1="470.9" y1="435.98" x2="494.32" y2="500.91"/><line class="cls-23" x1="489" y1="430.83" x2="487.51" y2="505.56"/><line class="cls-23" x1="503.12" y1="431.99" x2="489" y2="500.91"/><line class="cls-23" x1="514.74" y1="435.98" x2="496.75" y2="504.23"/><polyline class="cls-23" points="545.13 451.42 496.21 505.56 559.25 471.85"/><line class="cls-23" x1="554.93" y1="461.55" x2="496.75" y2="508.88"/><line class="cls-23" x1="570.04" y1="488.62" x2="500.46" y2="513.36"/><path class="cls-23" d="M571.37,507.22c-.5,0-82.7,1.83-79.71,3"/><path class="cls-23" d="M570,527.48c-.83-.66-78.46-16.27-78.46-16.27"/><path class="cls-23" d="M562.57,546.08s-73.9-29.89-73.57-29.89"/><path class="cls-23" d="M547.79,562.18c-.17-.83-49.15-48.82-49.15-48.82"/><line class="cls-23" x1="537" y1="572.65" x2="498.64" y2="516.19"/><line class="cls-23" x1="524.54" y1="581.95" x2="496.06" y2="518.18"/><line class="cls-23" x1="492.49" y1="516.19" x2="509.6" y2="585.77"/><line class="cls-23" x1="491.58" y1="516.19" x2="482.61" y2="584.6"/><line class="cls-23" x1="487.1" y1="508.88" x2="466.09" y2="584.6"/><path class="cls-23" d="M492.49,512.53c-.83,0-37.36,62.16-37.36,62.16"/><line class="cls-23" x1="487.51" y1="511.2" x2="433.37" y2="560.52"/><line class="cls-23" x1="485.68" y1="510.21" x2="418.43" y2="537.77"/><path class="cls-23" d="M486.05,512.53c-.38.35-71.78.83-71.78.83"/><path class="cls-23" d="M416.27,494.93s70.75,13.54,69.41,12.29c-2.49-2.32-65.26-29.56-65.26-29.56"/><path class="cls-23" d="M490.5,507.3c.33-1.91-60.61-47.16-60.61-47.16"/><line class="cls-23" x1="487.6" y1="500.91" x2="446.66" y2="444.45"/><path class="cls-24" d="M396.69,531.94l20.87,1.29-.08-7-18.75-1.1S396.69,531.74,396.69,531.94Z"/><path class="cls-2" d="M467.72,311.5c-18.27-2.65-44.35,5.24-49.89,13.63h0c-1.45,7.88-4.33,21.54-8.22,31a82,82,0,0,0-3.54,12c-3.91,16.89-7,41.9-8,52.62-.06.58-.11,1.12-.15,1.62-.66,7.26.88,12.63,2,18.79a53.73,53.73,0,0,1,.88,14.43c-.29,3.65-.73,10.5-1.24,18.65-.13,2-.25,4.12-.39,6.28-.35,5.75-1.88,31.47-2.62,44.23,7.52,1.86,15,.77,22.57,2,1.09-11.23,3.54-34.08,6.47-46.77A66.83,66.83,0,0,0,427,464.76h0c0-2.78-.13-5.55-.3-8.28-.37-5.89-1-11.51-1.29-16.39h0a48.22,48.22,0,0,1,.11-9.37c1.55-10.63,15.78-35.09,19.26-45.22,1.7-5,7.31-13.86,12.94-23.11,3.23-5.31,6.48-10.73,9-15.6h0A50.44,50.44,0,0,0,471,336.34C473.33,326.83,469.61,316.05,467.72,311.5Z"/><path class="cls-16" d="M424,556l-.06.07c-1.73,1.85-15.86,3.27-22.64,4.7s-15.94,5.75-23.36,6.42-18.27.89-20.37,0a2.67,2.67,0,0,1-1.46-1.25c-.5-1.06-.08-2.6,1.46-4.73,2.32-3.21,6.08-2.43,13.95-5.2s11.18-10.3,15.94-15.39c3.2-3.41,6.69-6.93,8.64-8.87,0,.09,0,.13,0,.13l22.14,1.32C420.38,539.69,425.12,554.57,424,556Z"/><path class="cls-6" d="M424.16,561.69c-1.16,3-8.25,3.87-14.89,3.32s-11.07-.88-14.95,1.77-16.05,3.76-22.92,4.2-15.16,1.22-15.5-1.88a9.09,9.09,0,0,1,.2-3.14,2.67,2.67,0,0,0,1.46,1.25c2.1.89,13,.66,20.37,0s16.5-5,23.36-6.42,20.91-2.85,22.64-4.7C424.41,557.94,424.75,560.17,424.16,561.69Z"/><path class="cls-24" d="M350.26,288.56l-1.18,1.71c-3.42,5-13.4,19.35-17.31,24.09-4.76,5.75-12.18,14.33-16,17.66s-19.1,20.81-20.37,22.58-3.37,4.87-4.37,5.65a11.8,11.8,0,0,0-1.41,1.56c-1.5,1.85-3.65,4.8-4.9,6.52-1.77,2.43-4.26,4-5.53,4s-1.49-2.27-1.44-2.44-4.7.11-5.7-.05.22-8.3.22-8.3A18.73,18.73,0,0,1,271,365.4a6.28,6.28,0,0,0-.37,3.81,2.76,2.76,0,0,1-.18,2c-.65,1.32-1.76,3.35-2.51,3.35-1.1,0-2.66-8-2.27-8.95s1.93-10,4.21-11.34,13.34-5.48,16.66-7.31,14.12-17.6,16.94-23.41,28.52-42.27,29.33-43.42Z"/><circle class="cls-13" cx="279.07" cy="361.08" r="4.32"/><path class="cls-15" d="M253.17,343.64s-3,5.15,4.57,9.22,20.92,8.8,20.92,8.8"/><path class="cls-25" d="M460.06,304.54s-24.33-1.5-39,10.5"/><path class="cls-26" d="M379.73,175.73c2-23.65,9.33-25.53-23.89-35.19-26.33-7.66-43.94,14.07-47,23.7-2.47,7.84,1.14,11.68,3.89,22.62,1,4.09,10.63.68,12-5.47.87-3.86-.75-6.94,5.37-8.91,5.13-1.65,1.85,13.19,2.76,15.93s13.78-1,19.16,7.56a63.78,63.78,0,0,1,4.55,8.1C357.65,208.59,377.83,198.59,379.73,175.73Z"/><path class="cls-27" d="M336.33,166.51c-.52.52-1.06,1.11-1,1.53,0,.25,0,.63,0,1s.11.84.14,1.26a2.56,2.56,0,0,1-.15,1.2,6.93,6.93,0,0,1-.75,1.38,5.23,5.23,0,0,1-1.25,1.25,5.79,5.79,0,0,1-1.44.71c-.41.12-.71.23-.64.17a.75.75,0,0,0,.14-.23c0-.09,0-.11,0-.05a2.16,2.16,0,0,0,0,.66l0,.65a6,6,0,0,1,0,.77,3.5,3.5,0,0,1-.65,1.66,2.71,2.71,0,0,1-1.52,1,4,4,0,0,1-2.7-.37.51.51,0,0,1,.14-1h.08a3.4,3.4,0,0,0,1.69-.58c.3-.33.14-.41.1-.84,0-.1-.06-.22-.1-.34a3.53,3.53,0,0,1-.14-.45,4.89,4.89,0,0,1-.17-1.55,3,3,0,0,1,.27-1.12,2.92,2.92,0,0,1,.85-1.07,7.28,7.28,0,0,1,1.37-.76,1.33,1.33,0,0,0,.78-.7,3.87,3.87,0,0,0,.24-.61,2.32,2.32,0,0,1,.59-.9,8.22,8.22,0,0,0,.8-.86c.24-.31.37-.65.66-1.09a3.22,3.22,0,0,1,1.08-1l1-.56a.5.5,0,0,1,.6.8Z"/><path class="cls-24" d="M353,194.19s8.19-10.13-1-12.73c-4.67-1.32-6.67,7.42-6.67,7.42l-6-4s1-13.22-8.05-15.51c-1.54-.39-2.54,1.24-4.73,1.6-1.79.3-3.22-3.08-3.91,1-.48,2.83.2,6.88-.69,9.32-1.33,3.65-5.06,10.14-4.71,11.74,1,4.32,5.48,2.16,5.31,5.15s-3.65,11.77,5,13.87c5.23,1.26,8.43-3.7,15.59,7.81q.41.66.81,1.4c.72-3.39,7.47-12.54,12.76-17.17A104.51,104.51,0,0,0,353,194.19Z"/><path class="cls-26" d="M313.58,156.77a22.18,22.18,0,0,1,.62-6,6.39,6.39,0,0,1,1.75-3.09,4.67,4.67,0,0,1,1.75-1c.59-.19,1.13-.26,1.41-.36s.17-.08.13-.07-.06.06,0,0a7.93,7.93,0,0,1,.79-1.58,6.44,6.44,0,0,1,2.85-2.35,8.17,8.17,0,0,1,1.72-.51c.29,0,.58-.09.86-.11l.43,0,.28,0a.37.37,0,0,0-.18.06c-.06,0,0,0,0,0a8.87,8.87,0,0,0,.43-1.08,5.36,5.36,0,0,1,1-1.8,3.38,3.38,0,0,1,2.5-1.08,4.93,4.93,0,0,1,1.08.12l.72.19a3.48,3.48,0,0,0,1,.1,7,7,0,0,0,2.22-.55c.83-.31,1.72-.74,2.83-1.05a6.32,6.32,0,0,1,1.85-.26,5.18,5.18,0,0,1,1,.12c.17,0,.34.08.5.14l.39.15a4.36,4.36,0,0,0,2.14.19c.44,0,.91-.11,1.45-.15a5.69,5.69,0,0,1,1.84.11,3.17,3.17,0,0,1,1.81,1.22,4.67,4.67,0,0,1,.72,1.67,1,1,0,0,1-1.9.63v0a2.67,2.67,0,0,0-.55-.88.81.81,0,0,0-.57-.26,11.29,11.29,0,0,0-2.4.39,6.92,6.92,0,0,1-3.53-.09l-.29-.09-.2,0a2.18,2.18,0,0,0-.41,0,3.88,3.88,0,0,0-1,.21c-1.46.45-3.28,1.76-5.82,1.91a6.83,6.83,0,0,1-1.89-.18l-.66-.18a1.67,1.67,0,0,0-.34,0c-.18,0,0,0-.07,0a2.5,2.5,0,0,0-.35.71,10.28,10.28,0,0,1-.68,1.57,3.31,3.31,0,0,1-.92,1,2.91,2.91,0,0,1-1.51.53h-.72c-.19,0-.38,0-.56.05a5,5,0,0,0-1,.27,3.67,3.67,0,0,0-1.59,1.16,4.79,4.79,0,0,0-.55.95,2.85,2.85,0,0,1-.88,1.16,3.21,3.21,0,0,1-1.15.55c-1.28.26-1.71.27-2.15.64a4.23,4.23,0,0,0-1.13,1.8,23.47,23.47,0,0,0-1,5.32v0a1,1,0,0,1-2-.1Z"/><path class="cls-26" d="M306.57,190.23a21.69,21.69,0,0,1-1.85-2.54,9.93,9.93,0,0,1-1.36-3.26,5.37,5.37,0,0,1,0-2.24,4.74,4.74,0,0,1,1.18-2.17,7.82,7.82,0,0,1,1.58-1.25c.47-.29.92-.55,1.08-.69s0-.1-.14.16a1.39,1.39,0,0,0-.16,1l-.47-1.24a16.69,16.69,0,0,1-1-3.2,6.3,6.3,0,0,1,0-2.33,4.71,4.71,0,0,1,1.47-2.54l.13-.12.08-.07-.07.06a1,1,0,0,0-.2.26,1.15,1.15,0,0,0-.15.52c0,.09-.06-.28-.23-.74a7.18,7.18,0,0,1-.43-2.16,4.2,4.2,0,0,1,.35-1.74,4.26,4.26,0,0,1,1-1.43,5.43,5.43,0,0,1,1.12-.76,5.28,5.28,0,0,1,.52-.24l.23-.1h0a.85.85,0,0,0-.22.28,2.33,2.33,0,0,0,0-.33,8.27,8.27,0,0,0-.14-1.07c-.15-.85-.41-1.78-.59-3a6.17,6.17,0,0,1,.06-2.34,3.81,3.81,0,0,1,.88-1.66,3.66,3.66,0,0,1,1.6-1l.18-.05.08,0,.16-.05a2.41,2.41,0,0,0,.36-.16,4.84,4.84,0,0,0,.86-.63l1.09-1a7,7,0,0,1,1.7-1.17A3.77,3.77,0,0,1,318,151a5,5,0,0,1,1.79,1,1.5,1.5,0,0,1-1.63,2.49l-.07,0a1.77,1.77,0,0,0-.84-.23c-.18,0-.12.08-.22.16s-.8,1-1.51,1.79a9.21,9.21,0,0,1-1.34,1.29,6.38,6.38,0,0,1-.9.58c-.16.09-.34.16-.51.24l-.27.1c-.07,0-.23.08-.17.07a.67.67,0,0,0,.36-.22,1,1,0,0,0,.25-.36c0-.07,0,.24.12.58.15.72.46,1.66.72,2.72a10.55,10.55,0,0,1,.29,1.83,5.66,5.66,0,0,1-.37,2.55,4.44,4.44,0,0,1-2.24,2.3l-.43.19-.15.06c-.09,0-.1.06-.09,0a.78.78,0,0,0,.18-.26.75.75,0,0,0,.07-.31,3.51,3.51,0,0,0,.17.69,7.74,7.74,0,0,1,.43,2.1,3.83,3.83,0,0,1-.46,1.93,3.92,3.92,0,0,1-.63.84l-.35.31-.06.05h0s0-.11,0-.06a1.48,1.48,0,0,0,0,.58,15.89,15.89,0,0,0,.6,2.43c.15.49.28.91.44,1.54a3.19,3.19,0,0,1,.09,1.16,3.05,3.05,0,0,1-.41,1.22,3.66,3.66,0,0,1-1.17,1.18,15.19,15.19,0,0,1-1.46.78,4.42,4.42,0,0,0-.78.48,1,1,0,0,0-.28.33,1.38,1.38,0,0,0-.08.66,7.29,7.29,0,0,0,.65,2.22,24.75,24.75,0,0,0,1.26,2.42v0a1.49,1.49,0,0,1-2.44,1.71Z"/><path class="cls-26" d="M314.48,193.34a14.58,14.58,0,0,1-2.2-2.25,8.89,8.89,0,0,1-1.65-3.14,5.4,5.4,0,0,1-.12-2.3,4.92,4.92,0,0,1,1.13-2.31A8.13,8.13,0,0,1,313.2,182a12.3,12.3,0,0,0,1-.71c.06,0,0-.07-.2.25a1.58,1.58,0,0,0-.15,1.16l-.46-1.23a15.36,15.36,0,0,1-.94-3.23,6.37,6.37,0,0,1,.05-2.32,4.56,4.56,0,0,1,1.47-2.44l.13-.11.08-.06,0,.06a.83.83,0,0,0-.11.22.48.48,0,0,0,0,.37,2,2,0,0,0-.14-.88,7.79,7.79,0,0,1-.34-2,3.61,3.61,0,0,1,.31-1.46,3.49,3.49,0,0,1,.87-1.18,4.5,4.5,0,0,1,1-.64,4.31,4.31,0,0,1,.46-.21l.27-.11c.16-.08.17,0,.23-.14a3.62,3.62,0,0,0-.06-1.94c-.18-.89-.46-1.82-.64-2.93a5.45,5.45,0,0,1,0-2,2.83,2.83,0,0,1,.61-1.25,2.73,2.73,0,0,1,1.16-.75l.3-.1.24-.1a3.31,3.31,0,0,0,.47-.27,6.27,6.27,0,0,0,.94-.8A11.44,11.44,0,0,1,322.1,155a3.09,3.09,0,0,1,2.14-.29,4.82,4.82,0,0,1,1.68.77,1,1,0,0,1-1.08,1.68h0a2.8,2.8,0,0,0-1-.41.93.93,0,0,0-.69.14,10.37,10.37,0,0,0-1.75,1.88,8.66,8.66,0,0,1-1.21,1.18,5.8,5.8,0,0,1-.77.51c-.14.08-.28.14-.43.22s-.36.14-.39.16,0,0,0,.11a3.43,3.43,0,0,0,.13.94c.2.81.55,1.73.83,2.74a10.56,10.56,0,0,1,.35,1.67,4.73,4.73,0,0,1-.2,2.16,3.59,3.59,0,0,1-1.73,1.94l-.27.14-.12.07-.19.12a.84.84,0,0,0-.22.2c0,.12.09-.1.1,0s.15.41.35.83a6.22,6.22,0,0,1,.61,1.94,3.44,3.44,0,0,1-.29,1.79,3.7,3.7,0,0,1-.53.82l-.3.31c-.08.07,0,.05-.05.06h0c0,.08.07,0,.08.08s0,.29.12.59c.15.61.49,1.44.82,2.35.17.48.33.89.53,1.53a3.44,3.44,0,0,1,.14,1.25,3.3,3.3,0,0,1-.4,1.33,4,4,0,0,1-1.2,1.3,14.22,14.22,0,0,1-1.45.83,6,6,0,0,0-.75.43,1.14,1.14,0,0,0-.26.23,1,1,0,0,0-.14.61,7.57,7.57,0,0,0,.52,2.28c.3.84.68,1.71,1.05,2.61v0a1,1,0,0,1-1.6,1.19Z"/><path class="cls-26" d="M348,141.18a3.39,3.39,0,0,1,.4-1.83A3,3,0,0,1,350,138a6.5,6.5,0,0,1,5.53,1.22,6.27,6.27,0,0,1,.71.71l.11.13,0,0a.57.57,0,0,0-.2-.16l-.14-.06-.08,0s0,0,.1,0l.23-.05.3-.09c.41-.13.87-.28,1.33-.45.19-.08.58-.17.88-.25a4.07,4.07,0,0,1,1-.17,6.26,6.26,0,0,1,2,.12,7.15,7.15,0,0,1,3.29,1.81,10,10,0,0,1,2,2.76,8.4,8.4,0,0,1,.91,3.21.51.51,0,0,1-.93.3l0-.06a14,14,0,0,0-3.77-4,5.18,5.18,0,0,0-2.11-.84,3.29,3.29,0,0,0-1,0,1.56,1.56,0,0,0-.51.1c-.19.06-.3.07-.58.17-.5.17-1,.34-1.57.48l-.44.1-.52.08a4.4,4.4,0,0,1-.66,0,3,3,0,0,1-.45-.06,1.83,1.83,0,0,1-.5-.16,2.45,2.45,0,0,1-.81-.59l-.21-.25-.12-.17a4.81,4.81,0,0,0-.31-.42,3.63,3.63,0,0,0-.83-.66c-1.54-.85-2.74-1.29-3.63.52l0,.09a.5.5,0,0,1-1-.2Z"/><path class="cls-26" d="M365.52,142.9a3.39,3.39,0,0,1,1.32-1.33,3,3,0,0,1,2.1-.3,6.5,6.5,0,0,1,4,4,6.27,6.27,0,0,1,.21,1l0,.17,0,0a.57.57,0,0,0-.09-.24.84.84,0,0,1-.09-.12s-.07-.06-.06-.06,0,0,.1,0l.22.08.3.09c.41.11.88.23,1.36.34.2,0,.58.17.87.26a4.08,4.08,0,0,1,.91.39,6.26,6.26,0,0,1,1.62,1.19,7.15,7.15,0,0,1,1.8,3.3,10,10,0,0,1,.21,3.41,8.4,8.4,0,0,1-1,3.19.51.51,0,0,1-.95-.25V158a14,14,0,0,0-1-5.39,5.18,5.18,0,0,0-1.32-1.85,3.29,3.29,0,0,0-.86-.55,1.56,1.56,0,0,0-.49-.19c-.19-.05-.29-.1-.58-.17-.51-.13-1-.25-1.58-.44l-.42-.15-.48-.21a4.39,4.39,0,0,1-.57-.33,3,3,0,0,1-.35-.3,1.82,1.82,0,0,1-.33-.41,2.45,2.45,0,0,1-.37-.94l0-.33v-.21a4.78,4.78,0,0,0,0-.52,3.63,3.63,0,0,0-.34-1c-.84-1.55-1.61-2.56-3.34-1.52l-.08.05a.5.5,0,0,1-.69-.68Z"/><path class="cls-26" d="M302.65,171.6a8.19,8.19,0,0,1-1.39-3.15,7.3,7.3,0,0,1,.17-3.65,8,8,0,0,1,2-3.22,4.85,4.85,0,0,1,1.87-1.29,8.57,8.57,0,0,1,1.9-.37,1.1,1.1,0,0,0,.56-.25,5.3,5.3,0,0,0,.73-.71,8.81,8.81,0,0,1,.67-.69,5.15,5.15,0,0,1,.94-.69,5.36,5.36,0,0,1,2.19-.7,6.5,6.5,0,0,1,3.85.9,6.62,6.62,0,0,1,2.55,2.54.61.61,0,0,1-.73.87l-.13,0c-1.79-.59-3.83-.93-5-.55a2.4,2.4,0,0,0-.7.35,2.89,2.89,0,0,0-.29.25c-.12.11-.13.15-.4.43a7.42,7.42,0,0,1-1.57,1.36,4.74,4.74,0,0,1-2.35.73c-.73,0-1,0-1.17,0a1.62,1.62,0,0,0-.76.3,5.44,5.44,0,0,0-1.59,1.79,7.13,7.13,0,0,0-.31,5.21l0,.07a.6.6,0,0,1-1.06.51Z"/><path class="cls-26" d="M336.89,166.23a5.44,5.44,0,0,1,1.14,2.52,6.05,6.05,0,0,1-.13,2.4c-.16.62-.33,1.12-.42,1.44s-.09.42-.15.31-.07-.06-.07,0a.52.52,0,0,0,.16.18,2.62,2.62,0,0,0,.74.44,4,4,0,0,0,1.08.22l.86.08a3.64,3.64,0,0,1,1.37.42,2.76,2.76,0,0,1,1.16,1.3,4,4,0,0,1,.28,1.15,9.18,9.18,0,0,1,0,1.74A8.62,8.62,0,0,0,343,181a2.15,2.15,0,0,0,1.16,1.68,3.67,3.67,0,0,0,2.49-.23h0a.5.5,0,0,1,.44.9,4.92,4.92,0,0,1-3.31.88,3.3,3.3,0,0,1-1.78-.93,5.14,5.14,0,0,1-1.05-1.56,10.89,10.89,0,0,1-.81-3.31,6.86,6.86,0,0,0-.2-1.27.65.65,0,0,0-.14-.29s0,.15.15.22-.21.06-.73.13a7.87,7.87,0,0,1-1.91-.06,6.46,6.46,0,0,1-2-.71,5,5,0,0,1-1-.75,4.07,4.07,0,0,1-.88-1.29,5,5,0,0,1-.27-2.66c.09-.66.19-1.14.22-1.5s0-.55-.06-.59-.08,0-.2-.14A2.56,2.56,0,1,1,336.7,166Z"/><path class="cls-26" d="M340.91,188.5a3.39,3.39,0,0,1-1.87-.11,3,3,0,0,1-1.62-1.37,6.5,6.5,0,0,1,.36-5.65,6.27,6.27,0,0,1,.59-.81l.11-.13,0,0a.57.57,0,0,0-.12.22.84.84,0,0,1,0,.15s0,.09,0,.08,0,0,0-.1l-.09-.22-.13-.28c-.19-.39-.41-.82-.65-1.24-.11-.17-.26-.55-.38-.83a4.07,4.07,0,0,1-.32-.94,6.26,6.26,0,0,1-.19-2,7.15,7.15,0,0,1,1.28-3.53,10,10,0,0,1,2.42-2.42,8.4,8.4,0,0,1,3-1.4.51.51,0,0,1,.44.88l-.05,0a14,14,0,0,0-3.35,4.34,5.18,5.18,0,0,0-.51,2.22,3.29,3.29,0,0,0,.16,1,1.56,1.56,0,0,0,.18.49c.09.18.11.28.26.55.24.47.49.94.72,1.47l.17.42.16.5a4.42,4.42,0,0,1,.13.64,3,3,0,0,1,0,.46,1.82,1.82,0,0,1-.08.52,2.44,2.44,0,0,1-.46.9l-.22.25-.15.15a4.79,4.79,0,0,0-.36.37,3.63,3.63,0,0,0-.53.92c-.61,1.66-.85,2.9,1.07,3.5l.09,0a.5.5,0,0,1,0,1Z"/><path class="cls-26" d="M334.23,182a3.39,3.39,0,0,1-1.82-.42,3,3,0,0,1-1.37-1.62,6.5,6.5,0,0,1,1.28-5.52,6.28,6.28,0,0,1,.72-.7l.13-.11,0,0a.57.57,0,0,0-.16.2.83.83,0,0,1-.06.14s0,.09,0,.08,0,0,0-.1l-.05-.23-.09-.3c-.12-.41-.27-.87-.43-1.33-.08-.19-.17-.58-.24-.88a4.07,4.07,0,0,1-.16-1,6.26,6.26,0,0,1,.15-2,7.15,7.15,0,0,1,1.84-3.27,10,10,0,0,1,2.78-2A8.4,8.4,0,0,1,340,162a.51.51,0,0,1,.29.94l-.06,0a14,14,0,0,0-4,3.73,5.18,5.18,0,0,0-.87,2.1,3.29,3.29,0,0,0,0,1,1.56,1.56,0,0,0,.1.51c.06.19.06.3.16.59.16.5.33,1,.47,1.57l.1.44.08.52a4.41,4.41,0,0,1,0,.66,3,3,0,0,1-.07.45,1.82,1.82,0,0,1-.17.5,2.45,2.45,0,0,1-.6.81l-.26.21-.17.12a4.82,4.82,0,0,0-.42.31,3.63,3.63,0,0,0-.67.82c-.87,1.53-1.31,2.73.48,3.63l.09,0a.5.5,0,0,1-.21.95Z"/><circle class="cls-28" cx="245.61" cy="509.89" r="76.86"/><circle class="cls-28" cx="490.5" cy="509.89" r="76.86"/><path class="cls-24" d="M335.69,176.83s10.82-.77,14.65-2.61A15.1,15.1,0,0,1,337.5,181Z"/><path class="cls-24" d="M331.75,170.83S342,168,345.84,166.18c-4.67,7.23-13.34,7.65-13.34,7.65Z"/></g></svg>